<?xml version="1.0" standalone="no"?>
<!DOCTYPE svg PUBLIC "-//W3C//DTD SVG 20010904//EN"
 "http://www.w3.org/TR/2001/REC-SVG-20010904/DTD/svg10.dtd">
<svg version="1.0" xmlns="http://www.w3.org/2000/svg"
 width="1024.000000pt" height="1024.000000pt" viewBox="0 0 1024.000000 1024.000000"
 preserveAspectRatio="xMidYMid meet">
<metadata>
Created by potrace 1.14, written by Peter Selinger 2001-2017
</metadata>
<g transform="translate(0.000000,1024.000000) scale(0.100000,-0.100000)"
fill="#000000" stroke="none">
<path d="M5670 7614 l0 -62 75 -7 75 -7 0 -67 c0 -36 4 -71 8 -77 4 -6 33 -11
65 -11 l57 0 0 31 c0 17 3 55 6 84 l7 52 57 0 57 0 7 46 c12 88 31 80 -204 81
l-210 0 0 -63z"/>
<path d="M3101 7215 l-3 -185 126 0 126 0 0 -155 0 -155 -47 -2 c-27 -1 -56
-2 -66 -1 -17 0 -18 -12 -15 -169 l3 -168 -62 0 -63 0 0 -141 0 -141 -27 2
c-16 1 -45 2 -65 1 l-38 -1 0 -60 0 -60 -65 0 -65 0 0 -74 c0 -70 -1 -74 -24
-80 -13 -3 -44 -3 -68 0 l-44 6 4 -131 4 -131 -66 0 -66 0 0 -139 0 -140 -69
6 -70 6 -3 -132 -3 -131 79 0 78 0 -4 -70 -4 -70 127 0 127 0 1 -911 0 -911
-65 4 -66 3 7 -63 7 -62 -70 0 -70 0 1 -144 0 -144 61 1 61 2 6 140 c4 77 7
141 8 143 0 1 29 2 62 2 l62 0 -5 -265 -4 -265 66 0 65 0 0 1068 c-1 587 1
1174 3 1305 l4 237 119 0 c66 0 120 -1 121 -2 1 -2 4 -178 7 -391 l6 -388 320
-2 320 -2 3 393 2 392 70 0 70 0 0 -65 0 -65 185 0 185 0 0 53 c0 30 3 87 6
128 l6 74 59 -3 59 -4 0 70 c0 78 -4 82 -84 82 l-39 0 7 124 c8 140 10 136
-70 136 l-44 0 0 69 0 70 -27 -4 c-38 -4 -85 -7 -100 -6 -10 1 -13 32 -13 119
0 78 -4 122 -12 130 -9 9 -9 12 0 12 7 0 12 10 12 22 0 19 1 20 18 6 9 -9 36
-19 60 -23 l42 -7 0 65 0 66 -132 -2 -133 -2 -3 100 c-2 55 0 173 3 263 l7
162 189 0 188 0 3 -56 3 -56 128 -2 128 -1 -6 37 c-4 20 -4 46 0 58 6 20 12
20 400 20 l394 0 3 -52 3 -53 60 -1 59 -1 0 -67 0 -66 273 0 c175 0 273 4 273
10 0 6 -31 10 -74 10 l-74 0 3 193 c2 105 4 249 5 320 l0 127 65 0 65 0 0 53
0 52 127 2 c69 2 127 4 129 5 1 2 4 58 6 125 l3 121 -122 7 c-66 4 -127 5
-133 3 -9 -3 -12 -38 -11 -126 l2 -122 -93 0 c-51 0 -171 -3 -266 -7 l-173 -6
3 114 3 114 54 5 c30 3 56 10 58 15 2 6 -44 11 -122 12 l-125 2 0 -130 0 -129
60 0 60 0 0 -54 0 -54 135 -7 135 -7 0 -265 c0 -238 -2 -265 -16 -259 -9 3
-38 6 -65 6 l-49 0 0 198 0 197 -910 -3 -910 -2 0 64 c0 72 4 76 78 76 l47 0
3 179 4 179 -61 4 -61 3 0 -128 0 -128 -62 3 -63 3 -5 117 c-3 64 -8 119 -12
123 -3 4 -63 8 -132 11 l-126 4 0 -125 0 -125 -126 0 -127 0 6 68 c4 37 7 90
7 119 0 41 4 52 18 56 9 3 -21 5 -68 6 l-85 1 -4 -185z m646 -152 c1 -37 3
-178 5 -313 l3 -245 75 -6 c41 -3 69 -6 63 -7 -15 -2 -18 -98 -4 -106 10 -7 2
-48 -11 -57 -5 -3 -37 -1 -71 4 -45 7 -62 6 -65 -3 -3 -8 -9 -7 -21 4 -13 12
-28 13 -66 7 l-50 -7 42 -5 c23 -2 39 -1 37 3 -3 5 1 8 9 8 17 0 27 -20 34
-67 l4 -32 -58 -3 -58 -3 -1 -50 c-1 -27 0 -54 3 -60 2 -5 26 -11 53 -12 42
-1 48 1 43 15 -4 14 -3 14 5 3 9 -13 13 -13 28 0 10 8 15 9 11 2 -5 -7 1 -21
13 -33 11 -11 20 -27 20 -35 0 -8 8 -15 18 -15 9 0 28 -9 41 -19 19 -14 24
-28 26 -72 1 -30 2 -66 3 -80 l2 -27 88 3 c48 2 105 -1 127 -5 36 -7 34 -8
-27 -9 l-68 -1 0 -65 0 -65 59 0 c76 0 87 -12 75 -83 l-9 -52 -62 -3 -63 -3 0
71 0 70 -57 0 c-82 0 -87 5 -78 79 l7 61 -62 0 -61 0 3 126 3 126 -82 -6 -82
-7 6 66 6 65 -46 0 c-31 0 -47 5 -51 15 -3 8 -2 15 3 15 5 0 12 8 15 18 15 39
32 62 45 62 22 0 9 6 -26 13 -25 5 -32 3 -35 -11 -3 -13 -5 -11 -10 7 l-7 24
77 -5 c42 -3 93 -2 112 2 23 5 -7 8 -82 9 l-118 1 6 -47 c3 -27 7 -60 9 -75 3
-16 0 -28 -6 -28 -6 0 -9 -28 -7 -72 l3 -72 56 3 57 2 3 -115 c2 -63 6 -117 9
-120 3 -3 25 -6 48 -7 23 -2 42 -8 42 -13 0 -7 3 -8 8 -1 4 6 15 11 24 11 15
1 16 -6 11 -62 l-6 -64 61 0 60 0 7 -70 7 -70 37 -1 c20 -1 46 0 58 1 21 1 22
-3 25 -112 3 -109 -4 -140 -26 -118 -6 6 -18 10 -28 10 -10 0 -18 7 -18 15 0
8 -5 15 -11 15 -6 0 -9 -7 -5 -15 3 -8 1 -15 -4 -15 -13 0 -13 57 0 65 6 3 10
12 9 18 0 9 -2 9 -6 0 -2 -7 -10 -13 -18 -13 -15 0 -15 -71 0 -82 6 -5 5 -8
-2 -8 -7 0 -13 -8 -13 -17 0 -14 2 -15 9 -4 6 10 10 10 16 1 6 -9 10 -9 16 1
6 10 9 11 9 2 0 -7 9 -13 21 -13 11 0 17 5 14 10 -4 6 5 10 19 10 16 0 26 -6
26 -15 0 -12 -14 -15 -65 -15 l-65 0 0 -60 0 -60 -391 0 -391 0 4 60 4 60 -40
2 c-110 5 -186 2 -186 -7 0 -5 -4 -4 -9 3 -5 8 -11 -39 -16 -117 l-7 -131
-124 1 -124 1 0 83 0 83 31 6 c58 11 77 8 82 -16 2 -13 5 49 6 137 1 88 4 176
7 195 l6 35 51 -4 c29 -1 58 -8 65 -14 10 -8 12 -2 10 29 -1 21 -1 60 0 87 l2
47 60 0 60 0 0 45 c0 25 0 48 1 53 1 12 43 31 71 32 53 0 58 7 58 79 0 36 3
89 6 116 l6 50 58 -3 57 -4 6 117 c4 64 4 130 0 146 l-6 30 64 -3 64 -3 5 60
5 60 63 3 62 3 1 147 c1 81 2 226 2 323 l1 177 125 -4 126 -3 2 -68z m163
-663 c5 0 11 8 13 18 3 9 5 -1 5 -23 0 -22 -2 -33 -5 -25 -3 8 -12 19 -19 23
-8 4 -13 22 -12 40 l1 32 4 -32 c2 -18 8 -33 13 -33z m40 -20 c-8 -34 -8 -33
-9 15 0 34 3 45 9 35 4 -9 5 -31 0 -50z m-50 -384 c0 -3 -4 -8 -10 -11 -5 -3
-10 -1 -10 4 0 6 5 11 10 11 6 0 10 -2 10 -4z m303 -13 c-7 -2 -19 -2 -25 0
-7 3 -2 5 12 5 14 0 19 -2 13 -5z m-19 -393 c46 0 88 -12 74 -21 -10 -7 -10
-9 0 -9 9 0 12 -47 12 -200 l0 -201 -62 7 c-35 4 -67 9 -72 12 -5 3 -6 88 -2
201 7 187 15 269 24 229 2 -11 13 -18 26 -18z m-236 -257 c-10 -2 -26 -2 -35
0 -10 3 -2 5 17 5 19 0 27 -2 18 -5z m-348 -683 l0 -270 -127 0 -128 0 3 257
c1 142 4 264 7 271 3 9 38 12 125 12 l120 0 0 -270z"/>
<path d="M3471 6464 c0 -11 3 -14 6 -6 3 7 2 16 -1 19 -3 4 -6 -2 -5 -13z"/>
<path d="M3728 6353 c6 -2 18 -2 25 0 6 3 1 5 -13 5 -14 0 -19 -2 -12 -5z"/>
<path d="M3943 5420 c0 -36 2 -50 4 -32 2 17 2 47 0 65 -2 17 -4 3 -4 -33z"/>
<path d="M3973 5400 c0 -25 2 -35 4 -22 2 12 2 32 0 45 -2 12 -4 2 -4 -23z"/>
<path d="M3453 4393 c9 -2 23 -2 30 0 6 3 -1 5 -18 5 -16 0 -22 -2 -12 -5z"/>
<path d="M3528 4393 c6 -2 18 -2 25 0 6 3 1 5 -13 5 -14 0 -19 -2 -12 -5z"/>
<path d="M6083 6783 c4 -58 7 -146 7 -195 l0 -88 60 0 60 0 0 54 0 54 63 4
c34 2 65 2 70 0 4 -2 7 -61 7 -133 l0 -129 60 0 60 0 -1 43 c-1 23 -5 56 -9
72 -7 24 -8 18 -7 -28 1 -66 -9 -80 -49 -74 -29 4 -28 4 4 6 32 1 32 2 31 49
-1 36 -3 41 -8 22 -10 -36 -21 -12 -26 55 -2 30 -7 60 -10 65 -4 6 1 13 9 16
9 3 16 13 16 21 0 12 15 14 85 12 97 -5 95 -6 95 82 l0 59 65 0 65 0 0 -125 0
-125 -42 0 c-23 0 -39 -3 -35 -6 10 -10 190 -6 196 5 3 5 5 65 3 134 l-3 126
-52 3 -52 3 1 63 1 62 -335 0 -335 0 6 -107z"/>
<path d="M6688 6623 c6 -2 18 -2 25 0 6 3 1 5 -13 5 -14 0 -19 -2 -12 -5z"/>
<path d="M6417 6513 c-10 -9 -9 -33 1 -33 4 0 8 9 8 20 0 23 0 22 -9 13z"/>
<path d="M6874 6501 c-6 -6 -5 -127 3 -203 l6 -68 52 0 52 0 7 -37 c3 -21 6
-53 6 -70 l0 -33 59 6 59 7 7 -126 7 -126 67 -3 66 -3 3 -62 3 -63 49 0 c48 0
50 -1 50 -29 0 -15 3 -49 6 -73 l6 -46 69 -6 69 -7 0 -107 c0 -59 4 -113 9
-120 4 -7 35 -18 69 -25 l61 -11 7 -53 6 -53 54 0 54 0 0 -70 0 -70 -60 0 -60
0 0 60 0 60 -68 0 c-64 0 -68 1 -68 23 0 12 -1 44 -2 71 l-2 49 -115 -6 c-64
-4 -120 -9 -125 -12 -6 -4 -10 -34 -10 -68 l0 -62 -471 3 c-430 2 -471 1 -465
-14 3 -8 6 -38 6 -65 l0 -49 48 -1 c26 -1 57 -4 70 -8 l24 -6 -2 -383 -1 -382
195 0 194 0 -5 60 -6 60 67 0 66 0 1 -32 c1 -18 2 -46 3 -63 l1 -30 63 3 c54
3 62 1 63 -15 0 -14 3 -12 11 7 7 17 8 151 5 408 l-6 382 70 0 69 0 1 -242 c0
-134 0 -328 -1 -432 -1 -104 2 -258 6 -343 l7 -153 113 0 113 0 5 -32 c3 -18
8 -49 11 -68 l5 -35 -58 3 c-96 5 -98 5 -94 54 1 24 -1 49 -6 56 -6 9 -130 13
-558 15 -302 1 -535 1 -517 -1 30 -3 32 -6 40 -55 10 -62 10 -62 -97 -70 -47
-4 -66 -3 -50 2 22 8 20 9 -17 10 -24 1 -43 -3 -43 -9 0 -5 7 -10 16 -10 8 0
12 -5 8 -11 -4 -8 1 -9 17 -4 13 4 21 4 17 0 -4 -5 -3 -14 3 -22 6 -7 8 -13 5
-13 -4 0 -2 -10 5 -22 10 -18 9 -20 -7 -14 -18 6 -18 5 0 -9 11 -8 25 -15 30
-14 6 0 5 3 -2 6 -21 8 5 32 28 26 11 -3 17 -9 14 -14 -3 -5 13 -9 35 -9 l39
0 4 -237 c2 -131 3 -238 3 -238 0 0 -31 1 -70 3 l-70 3 3 225 c2 196 1 224
-13 225 -8 1 -19 3 -25 4 -5 1 -30 3 -55 4 l-45 1 0 61 0 62 -55 -7 -54 -6 -3
67 -3 67 -320 -1 c-176 0 -412 -1 -525 -2 l-205 -1 3 -57 4 -58 321 0 c279 0
322 -2 323 -15 1 -8 2 -41 2 -72 l2 -58 130 0 130 0 2 -172 c0 -95 1 -180 2
-188 1 -17 35 -28 94 -29 l42 -1 0 99 0 99 35 31 c35 30 59 39 68 24 3 -5 6
-64 8 -132 l4 -125 -55 0 -55 -1 -3 -52 c-3 -52 -3 -52 30 -57 18 -3 72 -7
120 -9 l87 -3 4 35 c4 40 10 -267 8 -399 -1 -47 1 -131 5 -188 l6 -102 64 0
64 0 0 350 0 350 65 0 65 0 0 -485 0 -485 -135 0 -134 0 -3 68 -3 67 -192 3
-193 2 0 -75 0 -75 -147 0 c-82 0 -286 3 -455 7 l-308 6 0 69 0 68 -136 0
-136 0 4 -70 4 -70 -62 0 -62 0 -7 135 -7 135 -64 0 -64 0 0 -59 0 -60 53 -4
52 -3 -52 -2 -53 -2 0 -70 0 -70 -107 2 c-60 1 -89 3 -65 5 l42 4 0 60 0 59
-70 0 -69 0 -3 -67 -3 -68 -805 -3 c-443 -1 -815 0 -828 3 -20 5 -22 11 -22
70 l0 65 133 0 132 0 1 130 2 130 -69 0 -69 0 0 -71 0 -72 -65 5 -65 6 0 -59
0 -59 -71 0 -70 0 7 123 c4 67 8 123 9 125 1 1 30 3 63 4 l62 2 0 64 c0 59 2
64 20 59 11 -3 18 -1 14 4 -3 5 -12 9 -20 9 -16 0 -15 -5 -14 153 l1 117 -70
0 -71 0 0 -140 0 -140 -65 0 -65 0 0 -63 0 -63 -70 4 -70 4 0 -66 0 -66 70 0
70 0 0 -70 0 -70 70 0 70 0 0 -70 0 -70 -124 0 c-68 0 -131 3 -139 6 -11 4
-13 16 -9 49 2 24 1 82 -3 129 l-7 86 -184 0 -184 0 0 -65 0 -65 124 0 124 0
6 -31 c3 -17 6 -46 6 -64 l0 -32 -102 -6 c-57 -3 -125 -2 -153 2 -27 5 -42 9
-32 10 16 1 18 9 15 64 l-3 62 -128 3 -127 3 0 -71 0 -70 -85 0 -85 0 0 -125
0 -125 4015 0 4015 0 0 125 0 125 -100 0 -100 0 0 70 0 70 -185 0 -185 0 0 60
0 60 -130 0 -130 0 -2 198 -3 197 -55 5 -55 5 -3 253 -2 252 60 0 60 0 0 65 0
65 55 0 55 0 0 70 0 70 -55 0 -55 0 0 65 0 65 -125 0 -125 0 0 70 0 70 -140 0
-140 0 0 65 0 65 -215 0 -215 0 0 450 0 450 100 0 100 0 0 70 0 70 115 0 115
0 0 170 0 170 -64 0 c-35 0 -84 3 -110 6 l-46 7 0 158 0 159 -105 0 -105 0 0
135 0 135 -107 0 -108 0 3 55 4 55 -65 0 -64 0 1 73 c0 39 0 131 -1 204 l-3
132 -126 3 c-69 2 -128 1 -130 -1z m-6 -1786 l-3 -205 -128 0 c-78 0 -126 4
-122 9 3 6 6 96 5 201 l0 191 100 -2 c81 -1 100 -4 100 -16 0 -12 -3 -13 -15
-3 -8 6 -22 10 -32 7 -14 -4 -14 -5 4 -6 12 0 27 -9 32 -18 9 -15 11 -13 17
15 4 22 12 32 25 32 18 0 19 -10 17 -205z m269 -942 c-3 -10 -5 -2 -5 17 0 19
2 27 5 18 2 -10 2 -26 0 -35z m643 -75 c0 -83 -5 -89 -69 -86 -48 3 -56 6 -56
23 0 11 -4 23 -10 27 -6 5 -6 8 1 8 6 0 9 12 6 29 -3 23 -10 31 -31 34 -14 2
16 5 67 6 l92 1 0 -42z m254 -4 c3 -26 6 -87 6 -135 l0 -89 -70 0 -70 0 0 59
c0 68 7 94 24 84 16 -11 106 -11 106 -1 0 4 -12 8 -27 8 -16 0 -45 3 -65 6
l-38 7 0 53 0 54 64 0 63 0 7 -46z m-1034 -66 c2 -57 3 -113 3 -125 -1 -19 5
-22 51 -26 28 -2 -92 -4 -266 -5 l-318 -2 0 65 0 65 65 0 65 0 0 65 0 65 199
0 199 0 2 -102z m261 -71 c-2 -42 1 -57 11 -57 10 0 9 -3 -2 -10 -20 -13 143
-13 187 -1 20 6 35 6 38 0 4 -5 11 -9 17 -9 7 0 9 20 5 59 -6 68 -2 71 85 71
47 0 48 0 70 -50 13 -27 29 -50 36 -50 6 0 12 -4 12 -9 0 -5 8 -12 18 -14 9
-3 1 -5 -19 -6 -19 0 -40 4 -47 11 -9 9 -12 8 -12 -5 0 -16 -23 -17 -270 -17
l-270 0 0 65 c0 72 -1 71 85 78 59 5 59 5 56 -56z m1049 26 c0 -21 3 -55 6
-75 l7 -38 -77 0 -76 0 0 75 0 75 70 0 70 0 0 -37z m-1070 -259 l35 -6 -3
-514 -4 -514 96 0 c68 0 98 4 101 13 3 6 6 235 7 507 l3 495 277 3 278 2 2
-317 3 -318 66 -3 66 -3 7 -46 c3 -25 6 -111 6 -190 0 -128 -2 -144 -16 -139
-9 3 -40 6 -70 6 l-54 0 0 174 c0 96 -3 181 -6 190 -5 13 -24 16 -108 16 -158
0 -141 31 -141 -266 l0 -254 -57 0 c-32 0 -61 0 -65 0 -5 1 -7 29 -5 64 l4 63
-32 7 c-18 3 -58 6 -89 6 l-56 0 3 -70 4 -70 -244 0 -243 0 3 70 4 70 -77 0
-77 0 6 178 c3 97 5 280 6 405 l0 228 133 -2 132 -1 3 111 3 111 32 0 c18 0
48 -3 67 -6z m1060 -430 l0 -226 -62 6 c-34 4 -63 8 -63 9 0 1 1 100 3 220 l3
217 59 0 60 0 0 -226z m410 -606 c8 -77 15 -114 22 -119 30 -19 -221 -26 -442
-11 -108 7 -111 7 -50 12 l65 5 3 58 3 57 199 0 c110 0 200 -1 200 -2z m-7112
-125 c-16 -2 -40 -2 -55 0 -16 2 -3 4 27 4 30 0 43 -2 28 -4z m2559 1 c-3 -3
-12 -4 -19 -1 -8 3 -5 6 6 6 11 1 17 -2 13 -5z m2506 -1 c-13 -2 -33 -2 -45 0
-13 2 -3 4 22 4 25 0 35 -2 23 -4z m1355 0 c-21 -2 -55 -2 -75 0 -21 2 -4 4
37 4 41 0 58 -2 38 -4z m795 0 c-7 -2 -21 -2 -30 0 -10 3 -4 5 12 5 17 0 24
-2 18 -5z"/>
<path d="M6841 4843 c1 -53 6 -49 11 10 2 20 0 37 -4 37 -4 0 -8 -21 -7 -47z"/>
<path d="M6806 4661 c-4 -7 -5 -15 -2 -18 9 -9 19 4 14 18 -4 11 -6 11 -12 0z"/>
<path d="M6678 4523 c7 -3 16 -2 19 1 4 3 -2 6 -13 5 -11 0 -14 -3 -6 -6z"/>
<path d="M6898 3543 c12 -2 32 -2 45 0 12 2 2 4 -23 4 -25 0 -35 -2 -22 -4z"/>
<path d="M7120 2956 c-3 -3 -31 -6 -63 -8 l-57 -3 0 -199 0 -199 62 7 c34 3
63 8 65 10 2 2 2 92 1 200 -2 109 -5 195 -8 192z"/>
<path d="M4825 6495 c-10 -4 -121 -15 -157 -16 -14 0 -18 -9 -18 -41 0 -33 4
-41 23 -46 22 -6 22 -6 -3 -13 l-25 -7 25 -2 25 -2 -25 -8 c-15 -5 26 -8 108
-9 l132 -1 0 75 0 75 -37 -1 c-21 0 -42 -2 -48 -4z m72 -107 c-3 -7 -5 -2 -5
12 0 14 2 19 5 13 2 -7 2 -19 0 -25z"/>
<path d="M6600 6492 c0 -5 7 -9 15 -9 8 0 15 4 15 9 0 4 -7 8 -15 8 -8 0 -15
-4 -15 -8z"/>
<path d="M4252 6455 c0 -16 2 -22 5 -12 2 9 2 23 0 30 -3 6 -5 -1 -5 -18z"/>
<path d="M4217 6464 c-8 -8 1 -24 14 -24 5 0 9 7 9 15 0 15 -12 20 -23 9z"/>
<path d="M4246 6402 c-3 -5 1 -9 9 -9 8 0 12 4 9 9 -3 4 -7 8 -9 8 -2 0 -6 -4
-9 -8z"/>
<path d="M4141 6384 c0 -11 3 -14 6 -6 3 7 2 16 -1 19 -3 4 -6 -2 -5 -13z"/>
<path d="M4218 6363 c7 -3 16 -2 19 1 4 3 -2 6 -13 5 -11 0 -14 -3 -6 -6z"/>
<path d="M5323 6310 c0 -36 2 -49 4 -30 2 19 11 41 20 48 15 11 15 12 1 12 -9
0 -19 8 -21 18 -3 9 -4 -12 -4 -48z"/>
<path d="M5370 6355 c0 -8 6 -15 13 -15 8 0 14 7 14 15 0 8 -6 15 -14 15 -7 0
-13 -7 -13 -15z"/>
<path d="M6616 6329 c-4 -23 -4 -44 -1 -47 3 -3 5 4 5 15 0 20 27 39 38 28 3
-3 -1 -5 -8 -5 -8 0 -5 -7 8 -19 12 -10 22 -27 22 -38 0 -24 24 -48 39 -39 6
4 8 -2 6 -14 -2 -11 0 -20 6 -20 5 0 9 40 9 90 l0 90 -37 0 c-20 0 -45 -7 -55
-17 -18 -16 -18 -16 -12 0 3 9 2 17 -4 17 -5 0 -12 -19 -16 -41z"/>
<path d="M5302 6288 l-2 -78 43 0 c52 0 89 9 82 21 -3 4 -11 6 -18 4 -7 -3
-31 -7 -54 -9 l-42 -4 -4 72 -3 71 -2 -77z"/>
<path d="M5411 6313 c1 -34 2 -35 9 -13 11 36 11 50 0 50 -5 0 -10 -17 -9 -37z"/>
<path d="M4479 6311 c5 -9 11 -23 14 -31 3 -8 6 -1 6 16 1 20 -4 31 -13 31
-10 0 -12 -5 -7 -16z"/>
<path d="M5353 6323 c-7 -2 -13 -12 -13 -20 0 -12 3 -13 13 -4 8 6 17 8 20 4
4 -3 7 0 8 8 0 8 4 6 9 -6 8 -19 9 -19 9 3 1 22 -16 28 -46 15z"/>
<path d="M4480 6230 c-13 -8 -12 -10 3 -10 9 0 17 5 17 10 0 12 -1 12 -20 0z"/>
<path d="M4323 6223 c26 -2 68 -2 95 0 26 2 4 3 -48 3 -52 0 -74 -1 -47 -3z"/>
<path d="M5828 6185 c-2 -19 -1 -35 3 -35 4 0 6 -8 5 -17 -1 -15 9 -19 52 -21
l52 -3 0 55 0 56 -54 0 -54 0 -4 -35z m65 -62 c-7 -2 -19 -2 -25 0 -7 3 -2 5
12 5 14 0 19 -2 13 -5z"/>
<path d="M6781 6207 c0 -10 -11 -22 -23 -27 -13 -5 -16 -9 -8 -9 25 -1 42 15
37 35 -4 17 -5 17 -6 1z"/>
<path d="M6830 6210 c0 -5 4 -10 10 -10 5 0 11 -46 13 -102 l3 -103 2 113 c2
94 0 112 -13 112 -8 0 -15 -4 -15 -10z"/>
<path d="M6750 6199 c0 -5 5 -7 10 -4 6 3 10 8 10 11 0 2 -4 4 -10 4 -5 0 -10
-5 -10 -11z"/>
<path d="M6098 6183 c14 -28 -5 -83 -28 -83 -22 0 -24 -7 -11 -28 12 -20 17
-19 40 8 18 21 22 23 32 10 8 -11 12 -12 16 -2 2 6 11 12 18 12 7 0 15 9 18
20 3 11 1 20 -3 20 -5 0 -11 -8 -13 -17 -3 -10 -4 0 -3 22 0 22 6 43 11 47 6
4 -12 8 -38 8 -42 0 -47 -2 -39 -17z m35 -43 c-3 -11 -9 -20 -14 -20 -11 0
-11 3 -3 24 9 23 23 20 17 -4z"/>
<path d="M5061 6174 c0 -11 3 -14 6 -6 3 7 2 16 -1 19 -3 4 -6 -2 -5 -13z"/>
<path d="M6191 6043 c2 -70 6 -63 11 20 2 26 0 47 -4 47 -5 0 -7 -30 -7 -67z"/>
<path d="M4462 6080 c-35 -5 -41 -26 -7 -24 11 1 23 -3 26 -9 4 -5 10 0 14 12
8 28 8 28 -33 21z"/>
<path d="M5560 6025 c0 -41 4 -55 14 -55 8 0 17 6 19 13 4 10 6 10 6 0 1 -9
17 -13 49 -12 46 2 46 2 12 9 -31 7 -32 7 -7 9 25 1 27 4 27 46 l0 45 -60 0
-60 0 0 -55z"/>
<path d="M4418 5983 c7 -3 16 -2 19 1 4 3 -2 6 -13 5 -11 0 -14 -3 -6 -6z"/>
<path d="M6700 5970 c-23 -7 -23 -8 -3 -9 12 -1 25 4 28 9 3 6 5 10 3 9 -2 -1
-14 -5 -28 -9z"/>
<path d="M6648 5963 c7 -3 16 -2 19 1 4 3 -2 6 -13 5 -11 0 -14 -3 -6 -6z"/>
<path d="M4530 5935 c7 -18 6 -25 -3 -26 -6 -1 -1 -5 13 -9 18 -6 20 -8 7 -9
-10 -1 -15 -5 -12 -11 3 -5 1 -10 -5 -10 -6 0 -8 -4 -5 -10 3 -5 28 -10 54
-10 26 0 82 -3 124 -6 l77 -7 0 -51 c0 -28 4 -46 8 -39 5 8 13 9 22 3 8 -6 30
-10 48 -10 l33 0 -3 53 -3 52 -65 3 c-36 2 -69 7 -74 13 -6 6 -4 9 7 9 13 0
17 9 17 35 0 25 -4 35 -16 35 -8 0 -12 5 -9 10 4 6 -35 10 -109 10 l-116 0 10
-25z m190 -75 c0 -5 -5 -10 -11 -10 -5 0 -7 5 -4 10 3 6 8 10 11 10 2 0 4 -4
4 -10z"/>
<path d="M6981 5944 c0 -11 3 -14 6 -6 3 7 2 16 -1 19 -3 4 -6 -2 -5 -13z"/>
<path d="M5331 5932 c-1 -13 -5 -20 -11 -17 -6 4 -10 -10 -10 -34 l0 -41 59 0
c60 0 60 0 59 30 -1 16 -5 27 -10 24 -7 -5 -12 13 -11 44 1 6 -3 12 -8 12 -5
0 -9 -6 -9 -14 0 -8 -8 -13 -17 -11 -10 1 -12 0 -5 -2 6 -3 12 -21 12 -41 0
-29 -3 -34 -12 -24 -7 7 -18 32 -25 55 -7 27 -11 34 -12 19z"/>
<path d="M5358 5943 c7 -3 16 -2 19 1 4 3 -2 6 -13 5 -11 0 -14 -3 -6 -6z"/>
<path d="M5421 5934 c0 -11 3 -14 6 -6 3 7 2 16 -1 19 -3 4 -6 -2 -5 -13z"/>
<path d="M4310 5886 c0 -30 3 -57 8 -59 4 -3 7 18 7 46 0 40 4 52 15 52 10 0
17 -14 20 -45 7 -58 15 -70 48 -69 l27 1 -24 7 c-23 6 -25 11 -24 66 l1 60 -7
-55 -7 -55 -5 50 c-4 46 -6 50 -31 53 -28 3 -28 2 -28 -52z"/>
<path d="M4293 5885 c0 -27 2 -38 4 -22 2 15 2 37 0 50 -2 12 -4 0 -4 -28z"/>
<path d="M5920 5916 c0 -8 6 -18 13 -22 6 -4 9 -4 5 1 -4 4 -3 14 3 22 9 10 8
13 -5 13 -9 0 -16 -6 -16 -14z"/>
<path d="M4333 5880 c0 -25 2 -35 4 -22 2 12 2 32 0 45 -2 12 -4 2 -4 -23z"/>
<path d="M4891 5853 c0 -4 4 -17 9 -28 8 -19 9 -19 9 2 1 12 -3 25 -9 28 -5 3
-10 3 -9 -2z"/>
<path d="M5961 5795 c2 -27 7 -53 13 -57 7 -5 7 -8 -1 -8 -7 0 -13 -4 -13 -10
0 -6 27 -10 60 -10 l60 0 0 71 0 70 -61 -3 -60 -3 2 -50z m94 -45 c3 -5 1 -10
-4 -10 -6 0 -11 5 -11 10 0 6 2 10 4 10 3 0 8 -4 11 -10z m-25 -14 c0 -2 -9
-6 -20 -9 -11 -3 -20 -1 -20 4 0 5 9 9 20 9 11 0 20 -2 20 -4z"/>
<path d="M6883 5843 c15 -2 37 -2 50 0 12 2 0 4 -28 4 -27 0 -38 -2 -22 -4z"/>
<path d="M5560 5826 c0 -4 10 -11 23 -16 18 -7 18 -9 4 -9 -10 -1 -15 -6 -12
-11 3 -6 18 -8 33 -5 23 4 24 4 7 -4 -19 -9 -18 -10 4 -10 24 -1 24 -2 6 -15
-17 -12 -21 -12 -32 3 -10 14 -11 14 -9 -4 2 -11 -1 -26 -7 -32 -7 -10 4 -13
53 -13 60 0 62 1 55 23 -9 31 -9 39 -1 65 6 19 4 22 -21 22 -15 0 -45 3 -65 6
-21 4 -38 4 -38 0z"/>
<path d="M4291 5779 c-11 -32 -9 -34 20 -19 22 12 25 36 5 43 -10 4 -18 -4
-25 -24z"/>
<path d="M4345 5800 c-6 -10 -5 -11 17 -14 6 0 13 -7 16 -15 3 -9 -1 -11 -17
-6 -11 3 -21 4 -21 1 0 -3 15 -10 33 -15 31 -10 30 -10 -15 -8 -27 1 -48 -1
-48 -5 0 -5 21 -9 48 -10 47 -1 47 -1 -13 -8 -51 -6 -44 -7 53 -8 105 -2 112
-1 112 17 0 11 -4 23 -10 26 -5 3 -10 15 -10 26 0 25 -16 30 -60 20 -19 -5
-30 -9 -24 -10 16 -1 13 -31 -3 -31 -7 0 -13 6 -13 13 0 17 -37 39 -45 27z"/>
<path d="M4902 5730 c0 -14 2 -19 5 -12 2 6 2 18 0 25 -3 6 -5 1 -5 -13z"/>
<path d="M4797 5723 c-3 -4 16 -7 41 -6 41 2 43 1 17 -6 l-30 -9 33 -1 c23 -1
32 3 30 12 -5 13 -83 23 -91 10z"/>
<path d="M5117 5711 c-57 -8 -67 -21 -56 -69 4 -20 6 -39 3 -43 -2 -4 -5 -37
-5 -73 l-1 -66 -87 1 c-47 0 -80 3 -73 6 7 3 12 23 12 49 l0 44 -66 0 -67 0 6
-51 c4 -29 8 -54 11 -56 3 -3 88 -8 190 -11 l186 -5 0 142 c0 77 -1 140 -2
140 -2 -1 -25 -5 -51 -8z m-40 -213 c-3 -8 -6 -5 -6 6 -1 11 2 17 5 13 3 -3 4
-12 1 -19z"/>
<path d="M4548 5678 c-16 -16 -20 -17 -15 -5 3 9 2 17 -3 17 -5 0 -8 -53 -7
-123 l2 -124 58 -2 57 -2 0 131 0 130 -35 0 c-23 0 -43 -8 -57 -22z m-11 -65
c-3 -10 -5 -4 -5 12 0 17 2 24 5 18 2 -7 2 -21 0 -30z"/>
<path d="M5314 5638 l1 -68 57 0 58 0 0 59 c0 59 0 60 -27 57 -16 -1 -34 2
-42 8 -11 8 -13 8 -8 -1 4 -6 3 -14 -3 -18 -5 -3 -10 2 -10 12 0 14 -2 15 -9
4 -7 -11 -9 -11 -14 0 -3 8 -4 -16 -3 -53z m47 -6 c0 -11 3 -12 6 -4 8 19 23
14 23 -8 0 -11 5 -20 10 -20 6 0 10 -5 10 -11 0 -6 -5 -7 -12 -2 -7 4 -20 8
-28 8 -8 0 -18 14 -22 30 -7 27 -7 27 -4 -6 3 -26 0 -36 -10 -36 -13 0 -12 20
2 65 5 17 24 5 25 -16z"/>
<path d="M5686 5615 c-7 -79 -9 -166 -4 -170 2 -1 36 -5 76 -9 l72 -6 0 68 0
69 55 -5 c53 -4 55 -4 55 20 0 14 3 46 6 72 l7 46 -130 -2 -130 -3 -7 -80z"/>
<path d="M7002 5443 c-1 -73 1 -133 6 -133 4 0 6 39 4 87 -5 163 -8 179 -10
46z"/>
<path d="M6835 5553 c11 -3 23 -10 27 -17 5 -7 8 -5 8 7 0 12 -7 17 -27 16
-22 -1 -23 -2 -8 -6z"/>
<path d="M7263 5545 c2 -16 9 -19 47 -17 40 3 46 1 47 -18 1 -11 -3 -18 -8
-14 -13 7 -41 -15 -33 -27 3 -5 14 -9 24 -9 23 0 29 -19 26 -87 -1 -29 2 -53
6 -53 4 0 8 54 8 120 l0 120 -52 -1 c-42 -1 -48 -3 -28 -9 l25 -8 -27 -1 c-14
-1 -29 5 -32 12 -3 6 -5 3 -3 -8z"/>
<path d="M7191 5534 c0 -11 3 -14 6 -6 3 7 2 16 -1 19 -3 4 -6 -2 -5 -13z"/>
<path d="M7211 5534 c0 -11 3 -14 6 -6 3 7 2 16 -1 19 -3 4 -6 -2 -5 -13z"/>
<path d="M7230 5541 c0 -6 5 -13 10 -16 6 -3 10 1 10 9 0 9 -4 16 -10 16 -5 0
-10 -4 -10 -9z"/>
<path d="M6848 5473 c-14 -3 -18 -14 -16 -41 l1 -37 4 33 c3 19 10 32 19 32 8
0 14 5 14 10 0 6 -1 9 -2 9 -2 -1 -11 -3 -20 -6z"/>
<path d="M6751 5454 c0 -11 3 -14 6 -6 3 7 2 16 -1 19 -3 4 -6 -2 -5 -13z"/>
<path d="M5570 5419 c0 -5 9 -9 20 -9 11 0 20 2 20 4 0 2 -9 6 -20 9 -11 3
-20 1 -20 -4z"/>
<path d="M5656 5421 c-12 -5 -15 -10 -9 -14 6 -4 16 0 23 8 14 17 13 17 -14 6z"/>
<path d="M5608 5373 c7 -3 16 -2 19 1 4 3 -2 6 -13 5 -11 0 -14 -3 -6 -6z"/>
<path d="M5311 5328 c-1 -27 0 -28 54 -28 51 0 55 2 54 23 -1 17 -2 18 -6 4
-7 -27 -85 -21 -95 8 -5 17 -6 16 -7 -7z"/>
<path d="M7328 5343 c6 -2 18 -2 25 0 6 3 1 5 -13 5 -14 0 -19 -2 -12 -5z"/>
<path d="M7030 5318 c0 -5 42 -7 93 -6 94 1 82 5 -31 10 -34 2 -62 0 -62 -4z"/>
<path d="M7220 5320 c0 -5 5 -10 10 -10 6 0 10 5 10 10 0 6 -4 10 -10 10 -5 0
-10 -4 -10 -10z"/>
<path d="M7250 5319 c0 -5 5 -7 10 -4 6 3 10 8 10 11 0 2 -4 4 -10 4 -5 0 -10
-5 -10 -11z"/>
<path d="M7288 5323 c7 -3 16 -2 19 1 4 3 -2 6 -13 5 -11 0 -14 -3 -6 -6z"/>
<path d="M6643 5313 c37 -2 96 -2 130 0 34 2 4 3 -68 3 -71 0 -99 -1 -62 -3z"/>
<path d="M4638 5303 c45 -2 119 -2 165 0 45 1 8 3 -83 3 -91 0 -128 -2 -82 -3z"/>
<path d="M4520 5041 l0 -128 53 -7 c28 -3 116 -6 195 -6 142 0 143 0 141 -22
-1 -13 -1 -42 -1 -65 l2 -43 71 0 70 0 -2 -62 c-1 -35 2 -62 7 -61 69 12 124
14 124 4 0 -7 19 -9 60 -4 l60 6 0 -73 0 -72 34 4 c19 2 32 0 30 -4 -3 -4 0
-8 5 -8 6 0 11 -5 11 -11 0 -8 -5 -8 -15 1 -9 8 -15 9 -15 2 0 -6 5 -14 10
-17 6 -3 10 -16 10 -28 0 -24 16 -13 23 18 4 18 5 17 6 -3 0 -13 5 -20 11 -17
7 4 10 -28 9 -95 l-1 -101 -192 1 c-105 0 -219 1 -253 0 l-63 0 0 -65 0 -65
260 0 260 0 0 328 0 327 111 -3 c70 -2 116 1 122 7 14 14 30 14 22 1 -4 -6 20
-10 66 -10 l72 0 -5 70 -5 70 63 0 64 0 0 -67 c0 -126 7 -57 14 135 l7 192
-720 0 -721 0 0 -129z m1157 -228 c-3 -10 -5 -2 -5 17 0 19 2 27 5 18 2 -10 2
-26 0 -35z"/>
<path d="M6298 5043 c7 -3 16 -2 19 1 4 3 -2 6 -13 5 -11 0 -14 -3 -6 -6z"/>
<path d="M4504 4600 c0 -69 1 -97 3 -62 2 34 2 90 0 125 -2 34 -3 6 -3 -63z"/>
<path d="M4138 4653 c7 -3 16 -2 19 1 4 3 -2 6 -13 5 -11 0 -14 -3 -6 -6z"/>
<path d="M4248 4643 c17 -2 47 -2 65 0 17 2 3 4 -33 4 -36 0 -50 -2 -32 -4z"/>
<path d="M4913 4445 c0 -27 2 -38 4 -22 2 15 2 37 0 50 -2 12 -4 0 -4 -28z"/>
<path d="M5034 4375 c0 -60 1 -84 3 -52 2 32 2 81 0 110 -2 29 -3 3 -3 -58z"/>
<path d="M5184 4376 c1 -88 4 -110 16 -113 11 -3 12 -2 3 4 -8 6 -13 46 -16
113 l-3 105 0 -109z"/>
<path d="M4912 4350 c0 -19 2 -27 5 -17 2 9 2 25 0 35 -3 9 -5 1 -5 -18z"/>
<path d="M5370 4308 c0 -12 3 -17 8 -12 4 5 11 12 15 15 5 3 2 9 -7 12 -12 5
-16 0 -16 -15z"/>
<path d="M3092 4300 c0 -14 2 -19 5 -12 2 6 2 18 0 25 -3 6 -5 1 -5 -13z"/>
<path d="M5338 4313 c7 -3 16 -2 19 1 4 3 -2 6 -13 5 -11 0 -14 -3 -6 -6z"/>
<path d="M5213 4293 c9 -2 23 -2 30 0 6 3 -1 5 -18 5 -16 0 -22 -2 -12 -5z"/>
<path d="M3943 4123 c9 -2 23 -2 30 0 6 3 -1 5 -18 5 -16 0 -22 -2 -12 -5z"/>
<path d="M5941 3904 c0 -11 3 -14 6 -6 3 7 2 16 -1 19 -3 4 -6 -2 -5 -13z"/>
<path d="M6080 3838 c0 -63 9 -78 45 -78 18 0 36 6 38 13 4 10 6 10 6 0 1 -7
8 -13 16 -13 12 0 15 13 15 55 l0 55 -60 0 -60 0 0 -32z"/>
<path d="M4015 3750 c-7 -12 37 -24 62 -16 31 10 42 -7 46 -69 3 -57 3 -56 5
18 l2 77 -54 0 c-30 0 -58 -4 -61 -10z"/>
<path d="M3938 3613 c7 -3 16 -2 19 1 4 3 -2 6 -13 5 -11 0 -14 -3 -6 -6z"/>
<path d="M3227 3368 c-3 -51 -6 -254 -6 -450 l-1 -358 65 0 65 0 1 83 c0 45 3
74 7 65 6 -13 18 -16 62 -13 30 1 57 -1 60 -6 3 -4 91 -10 195 -11 l190 -3 3
393 2 392 -319 0 -319 0 -5 -92z m370 -52 c0 0 3 -117 5 -259 l3 -257 -62 0
-63 0 0 -45 c0 -25 -3 -45 -8 -45 -4 0 -5 24 -2 53 5 50 6 52 40 58 29 5 30 7
10 9 -33 3 -32 3 -59 -5 -19 -6 -23 -4 -18 8 4 11 2 14 -7 11 -8 -3 -20 3 -27
13 -8 11 -22 22 -31 26 -14 5 -18 -2 -21 -41 -2 -26 -5 63 -7 198 -2 135 -4
252 -5 260 -1 8 0 18 2 22 2 5 243 -1 250 -6z"/>
<path d="M3464 2865 c15 -8 45 -15 65 -14 36 1 35 1 -14 15 -65 18 -87 18 -51
-1z"/>
<path d="M4121 3424 c0 -11 3 -14 6 -6 3 7 2 16 -1 19 -3 4 -6 -2 -5 -13z"/>
<path d="M4088 3333 c7 -3 16 -2 19 1 4 3 -2 6 -13 5 -11 0 -14 -3 -6 -6z"/>
<path d="M4780 3007 l0 -324 64 -2 65 -2 1 323 0 323 -65 3 -65 3 0 -324z"/>
<path d="M5048 3218 c2 -62 7 -115 12 -118 4 -3 5 -14 3 -25 -11 -49 -15 -165
-8 -271 l7 -114 122 0 123 0 -1 195 c0 167 -2 195 -15 198 -14 4 -14 5 0 6 14
1 17 18 21 114 2 61 4 113 4 113 -1 1 -62 5 -136 8 l-135 7 3 -113z"/>
<path d="M5438 3133 c1 -103 2 -247 2 -320 l0 -133 54 0 c34 0 56 -5 59 -12 3
-7 6 85 6 205 l1 217 69 0 c61 0 69 2 66 18 -2 9 -4 61 -4 115 l-1 97 -127 0
-128 0 3 -187z"/>
<path d="M4503 2880 c0 -47 2 -66 4 -42 2 23 2 61 0 85 -2 23 -4 4 -4 -43z"/>
<path d="M5942 2900 c0 -14 2 -19 5 -12 2 6 2 18 0 25 -3 6 -5 1 -5 -13z"/>
<path d="M5941 2814 c0 -11 3 -14 6 -6 3 7 2 16 -1 19 -3 4 -6 -2 -5 -13z"/>
<path d="M4503 2680 c0 -25 2 -35 4 -22 2 12 2 32 0 45 -2 12 -4 2 -4 -23z"/>
<path d="M3403 2563 c15 -2 39 -2 55 0 15 2 2 4 -28 4 -30 0 -43 -2 -27 -4z"/>
<path d="M4248 2528 c5 -71 10 -77 11 -15 0 31 -2 57 -7 57 -4 0 -6 -19 -4
-42z"/>
<path d="M5034 2556 c-3 -8 -4 -29 -2 -48 3 -29 4 -27 8 15 5 48 3 58 -6 33z"/>
<path d="M5525 2560 c-3 -5 1 -10 9 -10 14 0 16 -18 16 -115 0 -115 0 -116
-26 -125 -32 -13 -75 -13 -94 0 -11 7 -6 8 17 4 21 -4 39 -2 48 6 14 11 11 16
-17 33 -33 21 -38 23 -60 26 -9 1 -7 6 5 15 9 7 17 17 17 22 0 4 -5 3 -12 -4
-14 -14 -32 -16 -23 -2 3 5 -9 9 -29 8 -23 -1 -33 -5 -29 -12 4 -6 0 -5 -9 2
-21 17 -26 8 -29 -58 l-3 -55 127 -1 127 -1 0 139 c0 113 -3 138 -14 138 -8 0
-18 -4 -21 -10z m-157 -253 l37 -4 -40 1 c-28 1 -40 6 -41 16 0 8 1 10 3 3 2
-6 21 -14 41 -16z"/>
<path d="M3852 2540 c0 -14 2 -19 5 -12 2 6 2 18 0 25 -3 6 -5 1 -5 -13z"/>
<path d="M5943 2500 c0 -36 2 -50 4 -32 2 17 2 47 0 65 -2 17 -4 3 -4 -33z"/>
<path d="M3331 2534 c0 -11 3 -14 6 -6 3 7 2 16 -1 19 -3 4 -6 -2 -5 -13z"/>
<path d="M4503 2485 c0 -22 2 -30 4 -17 2 12 2 30 0 40 -3 9 -5 -1 -4 -23z"/>
<path d="M3583 2443 c54 -2 139 -2 190 0 51 1 7 3 -98 3 -104 0 -146 -2 -92
-3z"/>
<path d="M5532 2420 c0 -14 2 -19 5 -12 2 6 2 18 0 25 -3 6 -5 1 -5 -13z"/>
<path d="M3098 2360 l-3 -70 195 0 195 0 -2 53 c0 28 -2 60 -2 70 -1 16 -17
17 -190 17 l-189 0 -4 -70z"/>
<path d="M5526 2341 c-4 -7 -5 -15 -2 -18 9 -9 19 4 14 18 -4 11 -6 11 -12 0z"/>
<path d="M4938 2293 c6 -2 18 -2 25 0 6 3 1 5 -13 5 -14 0 -19 -2 -12 -5z"/>
<path d="M5170 2246 c0 -71 4 -76 71 -76 l59 0 0 54 c0 62 -5 66 -81 66 l-49
0 0 -44z"/>
<path d="M27 103 c-25 -4 -27 -8 -27 -54 0 -48 1 -49 30 -49 30 0 30 1 30 55
0 30 -1 54 -2 54 -2 -1 -15 -4 -31 -6z"/>
</g>
</svg>
